<?xml version="1.0" encoding="UTF-8"?>
<svg id="Layer_1" data-name="Layer 1" xmlns="http://www.w3.org/2000/svg" viewBox="0 0 292.75 512">
  <defs>
    <style>
      .cls-1 {
        fill: #eee;
        stroke-width: 0px;
      }
    </style>
  </defs>
  <path class="cls-1" d="m47.28,63l.18,4.95,24.51-5.62v-4.99s4.9-1.12,4.9-1.12l-.47-29.88-4.9,1.13-.15-4.97-24.46,5.59v5.02s-4.99,1.14-4.99,1.14l.47,29.82,4.91-1.06Zm19.35-34.49l.49,30.03-14.93,3.38-.46-30.04,14.9-3.37Z"/>
  <path class="cls-1" d="m260.27,112.46l-103.07-20.9v-31.87s0,0,0,0v-.06s0-1.06,0-1.06h0s0-16.28,0-16.28c.61-.81.95-1.52,1.23-2.09.2-.39.83-1.83,1.14-3.05.23-.88.37-1.61.43-2.19,3.33-.98,6.74-1.97,10.07-2.95l-10-2.94c-.27-1.86-.75-3.48-1.2-4.46-1.61-3.48-3.4-5.12-3.92-5.66-1.02-1.05-2.5-1.84-3.26-2.25l-4.88-16.69c-1.6,5.5-3.15,11.08-4.75,16.58-.76.35-2.32,1.33-3.36,2.3-1.67,1.56-2.41,2.72-3.01,3.74-1.41,2.4-1.92,4.7-2.2,6.5l-9.96,2.87c3.29.95,6.68,1.93,9.97,2.88.09.69.25,1.56.53,2.51.1.35.58,1.96,1.35,3.38.34.64.53.98,1.11,1.82,0,16.3,0,32.62,0,48.92l-103.85,20.94h85.67s12.26,16.87,12.26,16.87v368.06s16.2,14.61,16.2,14.61l16.36-14.62V129.57s12.26-17.12,12.26-17.12h84.9Z"/>
  <path class="cls-1" d="m25.17,72.93l-.04-5,4.95-1.11-.18-5.01,4.97-1.02-.29-19.95-4.99,1.1v-4.99s-4.99,1.14-4.99,1.14v-5S0,38.71,0,38.71l.62,39.83,24.54-5.61Zm-5.39-33.81v5s5.03-1.15,5.03-1.15l.31,20.06-4.87,1.12v5.01s-9.97,2.27-9.97,2.27l-.45-30.04,9.95-2.27Z"/>
  <polygon class="cls-1" points="84.44 49.41 89.42 48.3 89.42 53.29 94.41 52.12 94.41 57.15 119.03 51.49 118.67 29.16 99.08 33.65 99.08 38.56 108.98 36.27 109.18 48.83 99.24 51.15 99.08 46.2 94.19 47.28 93.89 27.2 98.77 26.12 98.77 21.09 108.74 18.82 108.74 23.83 118.55 21.59 118.47 16.68 113.59 17.79 113.41 12.84 93.79 17.32 93.78 22.33 88.96 23.34 88.96 28.43 84.12 29.51 84.44 49.41"/>
  <polygon class="cls-1" points="115.44 444.7 115.44 128.19 82.88 128.19 82.88 291.82 65.12 279.11 65.12 128.2 32.56 128.19 32.71 295.79 82.89 331.87 82.88 415.89 115.44 444.7"/>
  <polygon class="cls-1" points="162.18 81.3 271.56 106.5 271.56 373.53 168.1 465.4 168.1 492.98 292.2 382.82 292.28 90.08 162.18 60.1 162.18 81.3"/>
  <polygon class="cls-1" points="21.18 106.5 131.49 81.23 131.49 60.08 .46 90.09 .46 381.93 125.57 492.99 125.58 465.34 21.18 372.75 21.18 106.5"/>
  <polygon class="cls-1" points="282.93 36.7 282.82 46.68 277.79 45.53 277.79 50.55 272.8 49.42 272.8 54.41 267.74 53.25 268.08 33.3 258.31 31.07 257.69 70.88 267.51 73.13 267.63 58.13 272.65 59.29 272.65 64.32 277.48 65.4 277.48 70.39 282.39 71.55 282.36 76.52 292.12 78.75 292.2 73.87 287.29 72.73 287.29 67.74 282.46 66.63 282.46 61.62 277.63 60.52 277.63 55.41 282.62 56.55 282.62 51.56 287.6 52.68 287.6 47.7 292.59 48.8 292.75 38.95 282.93 36.7"/>
  <path class="cls-1" d="m220.77,62.44l24.47,5.59.13-4.89,4.89,1.11.48-29.85-4.9-1.14v-4.99s-24.52-5.61-24.52-5.61l-.1,4.99-4.93-1.11-.47,29.83,4.93,1.13v4.93Zm5.32-33.75l14.9,3.38-.43,30.06-14.94-3.41.47-30.03Z"/>
  <path class="cls-1" d="m198.49,52.36l4.99,1.09v-4.98s4.96,1.13,4.96,1.13l.34-19.84-4.95-1.16.12-4.97-4.97-1.16.1-4.95-24.56-5.62-.63,39.83,24.62,5.63v-4.99Zm-14.78-3.29l.47-30.03,9.95,2.26v5.01s4.86,1.11,4.86,1.11l-.3,20.07-5.02-1.17v5.01s-9.95-2.28-9.95-2.28Z"/>
  <polygon class="cls-1" points="210.17 128.82 177.61 128.82 177.61 445.47 260.49 372.11 260.49 128.82 227.93 128.82 227.93 369.59 210.17 385.32 210.17 128.82"/>
</svg>